<svg width="18" height="18" viewBox="0 0 18 18" fill="none" xmlns="http://www.w3.org/2000/svg">
<path d="M12.9599 8.1H7.73995C7.24315 8.1 7.19995 8.5023 7.19995 9C7.19995 9.4977 7.24315 9.9 7.73995 9.9H12.9599C13.4567 9.9 13.4999 9.4977 13.4999 9C13.4999 8.5023 13.4567 8.1 12.9599 8.1ZM14.7599 12.6H7.73995C7.24315 12.6 7.19995 13.0023 7.19995 13.5C7.19995 13.9977 7.24315 14.4 7.73995 14.4H14.7599C15.2567 14.4 15.2999 13.9977 15.2999 13.5C15.2999 13.0023 15.2567 12.6 14.7599 12.6ZM7.73995 5.4H14.7599C15.2567 5.4 15.2999 4.9977 15.2999 4.5C15.2999 4.0023 15.2567 3.6 14.7599 3.6H7.73995C7.24315 3.6 7.19995 4.0023 7.19995 4.5C7.19995 4.9977 7.24315 5.4 7.73995 5.4ZM4.85995 8.1H3.23995C2.74315 8.1 2.69995 8.5023 2.69995 9C2.69995 9.4977 2.74315 9.9 3.23995 9.9H4.85995C5.35675 9.9 5.39995 9.4977 5.39995 9C5.39995 8.5023 5.35675 8.1 4.85995 8.1ZM4.85995 12.6H3.23995C2.74315 12.6 2.69995 13.0023 2.69995 13.5C2.69995 13.9977 2.74315 14.4 3.23995 14.4H4.85995C5.35675 14.4 5.39995 13.9977 5.39995 13.5C5.39995 13.0023 5.35675 12.6 4.85995 12.6ZM4.85995 3.6H3.23995C2.74315 3.6 2.69995 4.0023 2.69995 4.5C2.69995 4.9977 2.74315 5.4 3.23995 5.4H4.85995C5.35675 5.4 5.39995 4.9977 5.39995 4.5C5.39995 4.0023 5.35675 3.6 4.85995 3.6Z" fill="#7C7C7C"/>
</svg>
